<svg width="48" height="48" viewBox="0 0 48 48" fill="none" xmlns="http://www.w3.org/2000/svg">
<path fill-rule="evenodd" clip-rule="evenodd" d="M28.0042 34.4813V34.2723H19.7962V34.4813H11.9022L14.9592 29.5643H32.8412L35.8972 34.4813H28.0042ZM26.7042 36.5203C26.7042 38.0663 25.4462 39.3243 23.9002 39.3243V39.3243C22.3532 39.3243 21.0952 38.0663 21.0952 36.5203V35.7813H26.7042V36.5203ZM15.2472 19.2033C15.2472 15.3683 17.8482 12.0363 21.5702 11.1013L22.0622 10.9773V10.3133C22.0622 9.30029 22.8862 8.47629 23.9002 8.47629C24.9132 8.47629 25.7372 9.30029 25.7372 10.3133V10.9773L26.2292 11.1013C29.9522 12.0363 32.5522 15.3683 32.5522 19.2033V28.2653H15.2472V19.2033ZM37.6192 34.7883L33.8522 28.7293V19.2033C33.8522 14.9363 31.0662 11.2073 27.0192 9.97129C26.8482 8.40129 25.5142 7.17529 23.9002 7.17529C22.2852 7.17529 20.9512 8.40129 20.7812 9.97129C16.7332 11.2073 13.9472 14.9363 13.9472 19.2033V28.7293L10.1812 34.7883C10.0562 34.9883 10.0502 35.2403 10.1652 35.4473C10.2792 35.6533 10.4972 35.7813 10.7332 35.7813H19.7962V36.5203C19.7962 38.7833 21.6372 40.6243 23.9002 40.6243C26.1632 40.6243 28.0042 38.7833 28.0042 36.5203V35.7813H37.0672C37.3022 35.7813 37.5202 35.6533 37.6352 35.4473C37.7492 35.2403 37.7432 34.9883 37.6192 34.7883V34.7883Z" fill="black"/>
</svg>
