<svg width="80" height="39" viewBox="0 0 80 39" fill="none" xmlns="http://www.w3.org/2000/svg">
<path fill-rule="evenodd" clip-rule="evenodd" d="M56.6469 29.4761C55.1361 29.4761 53.9063 28.197 53.9063 26.6249C53.9063 25.0529 55.1361 23.7737 56.6469 23.7737C58.1578 23.7737 59.3875 25.0529 59.3875 26.6249C59.3875 28.197 58.1578 29.4761 56.6469 29.4761ZM56.7257 32.7427C58.6988 32.7427 60.3043 33.8282 60.3043 35.163C60.3043 36.4977 58.6988 37.5832 56.7257 37.5832C54.752 37.5832 53.1471 36.4977 53.1471 35.163C53.1471 33.8282 54.752 32.7427 56.7257 32.7427ZM56.6469 22.5902C54.4939 22.5902 52.7425 24.4001 52.7425 26.6249C52.7425 28.3882 53.8305 29.928 55.4536 30.4666C54.7744 31.145 53.0065 32.9161 52.8083 33.1319C52.2685 33.7314 51.9832 34.4337 51.9832 35.163C51.9832 37.1498 54.111 38.7661 56.7257 38.7661C59.3404 38.7661 61.4676 37.1498 61.4676 35.163C61.4676 33.1761 59.3404 31.5592 56.7257 31.5592C56.4352 31.5592 56.1447 31.5801 55.8571 31.6214C56.1076 31.3512 56.4446 30.9932 56.764 30.6566C58.8611 30.5921 60.5513 28.8037 60.5513 26.6249C60.5513 26.243 60.4978 25.8622 60.3914 25.491L62.2316 24.1443V22.4605L59.7874 24.2328C59.0505 23.2005 57.8919 22.5902 56.6469 22.5902ZM40.3829 0.180516H37.674V11.9726H44.8301V9.6863H40.3829V0.180516ZM58.7453 4.86556C57.8508 4.50333 56.8957 4.07356 56.8957 3.55832C56.8957 2.81055 57.2591 2.47761 58.0731 2.47761C59.4622 2.47761 59.641 3.76573 59.648 3.82072L59.6715 4.00722L62.5456 3.9588L62.5262 3.73465C62.2998 1.15542 60.2073 0 58.233 0C56.5305 0 53.9963 0.944421 53.9963 3.54457C53.9963 5.18595 55.2025 6.03354 56.3823 6.64622C56.5828 6.75022 56.8745 6.8614 57.2127 6.98991C58.2401 7.37964 59.7933 7.9696 59.7933 8.82974C59.7933 9.03297 59.6998 9.35814 59.4392 9.605C59.1587 9.87219 58.76 9.98935 58.2471 9.95289C57.0539 9.86801 56.6052 8.45496 56.6005 8.44062L56.554 8.28819L53.7352 8.37845L53.7558 8.60021C53.9169 10.3211 55.2449 12.3492 58.4571 12.4036C58.4847 12.4042 58.5118 12.4042 58.5394 12.4042C60.1203 12.4042 61.6564 11.6265 62.2957 10.4938C62.7885 9.62054 62.8226 8.09811 61.934 6.87754C61.3165 6.02935 60.2126 5.45971 58.7453 4.86556ZM74.5453 28.7194H78.1004V26.2525H74.5353V24.0146H79.5295V21.8096H71.7495V33.5616H79.6724V31.3088H74.5453V28.7194ZM39.112 23.0062H37.8375V33.8007H39.112V27.0212L43.0446 24.1443V22.4605L39.112 25.2388V23.0062ZM72.1829 6.10885C72.4252 4.00004 73.9402 2.37958 75.7109 2.37958C77.5247 2.37958 78.6438 3.73525 78.8038 6.10885H72.1829ZM80 6.70659C80 3.3001 78.3568 1.18411 75.7109 1.18411C73.0986 1.18411 70.9726 3.66113 70.9726 6.70659C70.9726 9.75145 73.0986 12.2291 75.7109 12.2291C77.3041 12.2291 78.7809 11.3056 79.6607 9.75922L79.7642 9.57751L78.7456 8.97977L78.6427 9.16089C77.9752 10.3336 76.8789 11.0336 75.7109 11.0336C73.9402 11.0336 72.4252 9.41313 72.1829 7.30432H80V6.70659ZM6.35683 4.58164H2.60119V0.180516H0V11.9439H2.68059V7.25411H6.42388V11.987H9.02918V0.180516H6.35683V4.58164ZM26.8323 9.67972H21.7052V7.09033H25.2597V4.62408H21.6946V2.38556H26.6894V0.180516H18.9082V11.9326H26.8323V9.67972ZM5.03183 22.6518C3.82621 22.6518 2.73057 23.2716 1.76726 24.4964V23.0062H0.492832V33.8007H1.76726V27.7481C1.76726 25.9507 3.24752 24.0122 4.70073 23.9082C5.51349 23.8502 6.12512 24.0188 6.57972 24.4246C7.13548 24.9226 7.45189 25.8054 7.52069 27.0487C7.62067 28.8545 7.58656 33.5431 7.58656 33.5903L7.5848 33.8007H8.75101V26.7397C8.75101 24.708 7.47365 22.6518 5.03183 22.6518ZM22.7979 32.6967C20.8448 32.6967 19.2563 30.7373 19.2563 28.3285C19.2563 25.9196 20.8448 23.9602 22.7979 23.9602C24.7504 23.9602 26.3395 25.9196 26.3395 28.3285C26.3395 30.7373 24.7504 32.6967 22.7979 32.6967ZM22.7979 22.7641C20.1967 22.7641 18.0801 25.2603 18.0801 28.3285C18.0801 31.396 20.1967 33.8922 22.7979 33.8922C25.3985 33.8922 27.5151 31.396 27.5151 28.3285C27.5151 25.2603 25.3985 22.7641 22.7979 22.7641Z" fill="black"/>
</svg>
