<svg width="38" height="38" viewBox="0 0 38 38" fill="none" xmlns="http://www.w3.org/2000/svg">
<path d="M9.81074 30.9373V7.06335L22.2524 9.02782V16.2295H23.5524V8.77147C23.5524 8.2794 23.1944 7.86045 22.7084 7.78371L9.6667 5.7245C9.05974 5.62866 8.51074 6.09778 8.51074 6.71226V31.2884C8.51074 31.9028 9.05974 32.372 9.66671 32.2761L22.7084 30.2169C23.1944 30.1402 23.5524 29.7212 23.5524 29.2291V22.5628H22.2524V28.9728L9.81074 30.9373Z" fill="black"/>
<path fill-rule="evenodd" clip-rule="evenodd" d="M30.6164 19.7414H15.9824V18.7114H30.5879L27.5969 15.7205L28.3245 14.9922L32.2092 18.8761C32.305 18.9727 32.3596 19.1033 32.3596 19.2403C32.3596 19.3772 32.305 19.5078 32.2092 19.6044L28.2738 23.5398L27.5463 22.8115L30.6164 19.7414Z" fill="black"/>
</svg>
